<?xml version="1.0" encoding="UTF-8" standalone="no"?>
<!-- Created with Inkscape (http://www.inkscape.org/) -->

<svg
   width="210mm"
   height="297mm"
   viewBox="0 0 210 297"
   version="1.1"
   id="svg206"
   inkscape:version="1.1 (c4e8f9e, 2021-05-24)"
   sodipodi:docname="dessin.svg"
   xmlns:inkscape="http://www.inkscape.org/namespaces/inkscape"
   xmlns:sodipodi="http://sodipodi.sourceforge.net/DTD/sodipodi-0.dtd"
   xmlns="http://www.w3.org/2000/svg"
   xmlns:svg="http://www.w3.org/2000/svg">
  <sodipodi:namedview
     id="namedview208"
     pagecolor="#ffffff"
     bordercolor="#666666"
     borderopacity="1.0"
     inkscape:pageshadow="2"
     inkscape:pageopacity="0.0"
     inkscape:pagecheckerboard="0"
     inkscape:document-units="mm"
     showgrid="false"
     inkscape:zoom="0.57971985"
     inkscape:cx="339.43003"
     inkscape:cy="816.07336"
     inkscape:window-width="1366"
     inkscape:window-height="709"
     inkscape:window-x="0"
     inkscape:window-y="31"
     inkscape:window-maximized="1"
     inkscape:current-layer="layer13" />
  <defs
     id="defs203">
    <inkscape:path-effect
       effect="skeletal"
       id="path-effect2386"
       is_visible="true"
       lpeversion="1"
       pattern="M 0,4.9921382 C 0,2.2364779 2.2364779,0 4.9921382,0 c 2.7556604,0 4.9921383,2.2364779 4.9921383,4.9921382 0,2.7556604 -2.2364779,4.9921383 -4.9921383,4.9921383 C 2.2364779,9.9842765 0,7.7477986 0,4.9921382 Z"
       copytype="single_stretched"
       prop_scale="1"
       scale_y_rel="false"
       spacing="0"
       normal_offset="0"
       tang_offset="0"
       prop_units="false"
       vertical_pattern="false"
       hide_knot="false"
       fuse_tolerance="0" />
    <inkscape:path-effect
       effect="powerstroke"
       id="path-effect2380"
       is_visible="true"
       lpeversion="1"
       offset_points="0,4.99214"
       not_jump="false"
       sort_points="true"
       interpolator_type="CubicBezierJohan"
       interpolator_beta="0.2"
       start_linecap_type="zerowidth"
       linejoin_type="extrp_arc"
       miter_limit="4"
       scale_width="1"
       end_linecap_type="zerowidth" />
    <inkscape:path-effect
       effect="powerstroke"
       id="path-effect2374"
       is_visible="true"
       lpeversion="1"
       offset_points="0,4.99214"
       not_jump="false"
       sort_points="true"
       interpolator_type="CubicBezierJohan"
       interpolator_beta="0.2"
       start_linecap_type="zerowidth"
       linejoin_type="extrp_arc"
       miter_limit="4"
       scale_width="1"
       end_linecap_type="zerowidth" />
    <inkscape:path-effect
       effect="skeletal"
       id="path-effect2360"
       is_visible="true"
       lpeversion="1"
       pattern="M 0,4.9921382 C 0,2.2364779 2.2364779,0 4.9921382,0 c 2.7556604,0 4.9921383,2.2364779 4.9921383,4.9921382 0,2.7556604 -2.2364779,4.9921383 -4.9921383,4.9921383 C 2.2364779,9.9842765 0,7.7477986 0,4.9921382 Z"
       copytype="single_stretched"
       prop_scale="1"
       scale_y_rel="false"
       spacing="0"
       normal_offset="0"
       tang_offset="0"
       prop_units="false"
       vertical_pattern="false"
       hide_knot="false"
       fuse_tolerance="0" />
    <inkscape:path-effect
       effect="bspline"
       id="path-effect2336"
       is_visible="true"
       lpeversion="1"
       weight="33.333333"
       steps="2"
       helper_size="0"
       apply_no_weight="true"
       apply_with_weight="true"
       only_selected="false" />
    <inkscape:path-effect
       effect="bspline"
       id="path-effect1975"
       is_visible="true"
       lpeversion="1"
       weight="33.333333"
       steps="2"
       helper_size="0"
       apply_no_weight="true"
       apply_with_weight="true"
       only_selected="false" />
    <inkscape:path-effect
       effect="bspline"
       id="path-effect1971"
       is_visible="true"
       lpeversion="1"
       weight="33.333333"
       steps="2"
       helper_size="0"
       apply_no_weight="true"
       apply_with_weight="true"
       only_selected="false" />
  </defs>
  <g
     inkscape:groupmode="layer"
     id="layer13"
     inkscape:label="fond">
    <path
       style="fill:#e3dbdb;stroke:#000000;stroke-width:0.264583px;stroke-linecap:butt;stroke-linejoin:miter;stroke-opacity:1"
       d="m 828.17258,113.45324 c 0,0 -7.87325,3.28536 -8.50823,0.5438 -0.63497,-2.74156 -1.14491,-16.971908 -0.11672,-19.914598 1.0282,-2.9427 13.78073,-22.85567 13.78073,-22.85567 l 25.22394,-112.9431 10.85656,-165.558682 -52.27505,-94.79307 -133.75389,11.28946 -34.78862,187.90852 5.12084,116.942642 13.51851,78.35956 -51.29063,23.050628 c 0,0 -26.90704,40.03259 -39.83832,36.17521 -12.93128,-3.85736 -54.17465,28.84149 -60.13153,21.94965 -5.95688,-6.89185 -68.96003,0.85137 -71.2777,-6.37554 -2.31768,-7.22688 -23.45817,-8.60107 -19.74845,-12.26507 3.7097,-3.66401 -435.046582,-912.64012 -147.33428,-985.45165 287.71232,-72.81151 965.32276,-356.47383 1117.90646,139.64825 152.5838,496.12204 163.9767,771.006432 0,837.38626 -163.9766,66.37985 -437.20934,-16.20642 -459.81352,-28.07282 -22.60417,-11.86641 -27.27039,26.92426 -54.38533,11.8704 -27.11494,-15.05384 -49.18499,-1.4055 -52.66823,-10.88126 -3.48324,-9.47576 -0.47654,-6.01292 -0.47654,-6.01292 z"
       id="path9419" />
  </g>
  <g
     inkscape:groupmode="layer"
     id="layer6"
     inkscape:label="Visage"
     style="opacity:1"
     sodipodi:insensitive="true">
    <path
       style="fill:#c87137;stroke:#000000;stroke-width:0.0883694px;stroke-linecap:butt;stroke-linejoin:miter;stroke-opacity:1"
       d="m 140.29328,172.83006 c 0,0 11.11123,-74.796368 -33.76541,-68.13403 -44.876636,6.66233 -45.73953,26.76254 -46.534996,37.21824 -0.795473,10.45569 1.131298,30.35774 1.131298,30.35774 0,0 0.450083,17.15186 1.587749,22.73075 1.137666,5.57889 8.863362,24.91704 8.863362,24.91704 0,0 13.997076,21.06062 19.787095,22.96601 5.789996,1.9054 27.849982,-2.88149 28.768562,-6.15749 0.91857,-3.27602 12.88005,-22.64139 14.39647,-27.95125 1.51641,-5.30988 5.89647,-24.85432 5.69806,-31.69284 -0.19839,-6.83854 0.0679,-4.25417 0.0679,-4.25417 z"
       id="path1585" />
  </g>
  <g
     inkscape:groupmode="layer"
     id="layer7"
     inkscape:label="lèvres"
     style="opacity:1"
     sodipodi:insensitive="true">
    <g
       id="g1277"
       style="fill:#a02c2c;stroke:none"
       transform="matrix(0.32437129,0,0,0.34390469,85.706468,121.77089)">
      <path
         style="fill:#a02c2c;stroke:none;stroke-width:0.264583px;stroke-linecap:butt;stroke-linejoin:miter;stroke-opacity:1"
         d="m 49.308231,256.37182 15.898534,-5.14513 c 0,0 26.499585,12.5277 31.936055,11.65714"
         id="path345" />
      <path
         style="fill:#a02c2c;stroke:none;stroke-width:0.264583px;stroke-linecap:butt;stroke-linejoin:miter;stroke-opacity:1"
         d="m 49.308231,256.37182 -16.26539,-4.6654 c 0,0 -27.6803745,9.73506 -34.5854388,7.88747"
         id="path1137" />
      <path
         style="fill:#a02c2c;stroke:none;stroke-width:0.264583px;stroke-linecap:butt;stroke-linejoin:miter;stroke-opacity:1"
         d="m 97.14282,262.88383 c 0,0 -44.020382,75.39405 -98.6854178,-3.28994"
         id="path1174" />
    </g>
    <path
       style="fill:#a02c2c;stroke:none;stroke-width:0.0883694px;stroke-linecap:butt;stroke-linejoin:miter;stroke-opacity:1"
       d="m 105.43384,209.3945 11.1308,2.83691 -30.312666,-1.04628 9.650873,-1.70908 8.621553,0.4218 z"
       id="path1402" />
    <path
       style="fill:#000000;stroke:#000000;stroke-width:0.0893831px;stroke-linecap:butt;stroke-linejoin:miter;stroke-opacity:1"
       d="m 85.206102,211.04643 c 2.84048,1.47758 11.619508,0.97814 11.619508,0.97814 l 2.285454,1.09085 c 0,0 4.217806,0.53864 5.134636,0.53317 0.74577,-0.004 4.39187,-1.71596 4.39187,-1.71596 l 8.57924,0.24523 c 0,0 -6.25034,-0.32454 -8.47733,0.22213 -1.17766,0.28909 -3.73715,1.7258 -4.34297,1.73362 -0.60579,0.008 -6.066345,-0.41941 -6.303448,-0.78582 -0.243784,-0.37666 -0.892205,-1.07788 -1.549628,-0.91592 0,0 -11.183719,-0.4057 -11.337332,-1.38544 z"
       id="path1583"
       sodipodi:nodetypes="cccsccssssc" />
    <path
       style="fill:#c83737;stroke:none;stroke-width:0.0883694px;stroke-linecap:butt;stroke-linejoin:miter;stroke-opacity:1"
       d="m 94.174024,216.12833 c 0,0 7.765156,-0.0306 10.467476,0.4614 2.70232,0.49199 4.17532,-0.89926 4.17532,-0.89926 0,0 4.80662,-0.36876 0.17511,1.94855 -4.63154,2.31734 -9.737304,5.03459 -11.436856,2.70173 -1.699536,-2.33285 -3.38105,-4.21242 -3.38105,-4.21242 z"
       id="path3795" />
  </g>
  <g
     inkscape:groupmode="layer"
     id="layer11"
     inkscape:label="cou"
     sodipodi:insensitive="true">
    <path
       style="fill:#c87137;stroke:#000000;stroke-width:0.0883694px;stroke-linecap:butt;stroke-linejoin:miter;stroke-opacity:1"
       d="m 69.229506,216.11098 c 0,0 -1.274802,16.206 -2.864666,18.4239 -1.589863,2.21792 3.719908,5.24871 3.028392,8.88771 -0.910181,4.78962 28.414,25.90997 37.074858,27.6973 6.72156,1.38711 12.63955,2.70954 21.21825,0.0193 8.57869,-2.69022 9.65982,-18.53551 7.07509,-22.27769 -2.5847,-3.74219 -3.03903,-7.55419 -3.58902,-7.70905 -0.54998,-0.15483 12.07286,-1.96823 -5.41106,-3.42951 -2.12519,-0.17761 1.53959,-10.52204 1.53959,-10.52204 0,0 -19.156,12.10572 -20.7145,14.09251 -1.55849,1.98681 -22.755834,-4.44447 -23.40164,-6.53134 -0.645808,-2.08686 -13.955294,-18.6511 -13.955294,-18.6511 z"
       id="path8977"
       sodipodi:nodetypes="cssssssscssc" />
  </g>
  <g
     inkscape:groupmode="layer"
     id="layer8"
     inkscape:label="barbe"
     style="opacity:1"
     sodipodi:insensitive="true">
    <path
       style="fill:none;stroke:#000000;stroke-width:0.0883694px;stroke-linecap:butt;stroke-linejoin:miter;stroke-opacity:1"
       d="m 116.99164,205.59682 c 0,0 1.57855,3.10231 0.78004,4.22687"
       id="path1883" />
    <path
       style="fill:#000000;stroke:#000000;stroke-width:0.0883694px;stroke-linecap:butt;stroke-linejoin:miter;stroke-opacity:1"
       d="m 100.71415,198.42339 c 0,0 -7.87949,1.23124 -8.799926,1.2148 -0.920434,-0.0166 -14.700703,8.69145 -15.194399,11.81476 -0.493697,3.12334 0.789234,4.61216 0.789234,4.61216 0,0 12.777016,-9.1911 19.692147,-9.83688 0,0 3.576024,1.92231 4.185284,1.75768 0.60928,-0.16462 4.52634,-1.4829 4.52634,-1.4829 0,0 16.06037,5.9934 16.53067,7.27795 0.4703,1.28454 1.53779,2.89167 1.53779,2.89167 0,0 3.45102,-4.12267 0.33771,-7.04025 -3.11332,-2.9176 -21.01086,-11.3587 -21.01086,-11.3587 l -1.67951,0.6847 z"
       id="path1899"
       sodipodi:nodetypes="cssccscscsccc" />
    <path
       style="fill:none;stroke:#000000;stroke-width:0.0883694px;stroke-linecap:butt;stroke-linejoin:miter;stroke-opacity:1"
       d="m 103.30814,198.27368 c 0,0 3.08369,5.33782 2.60469,8.22933"
       id="path1861" />
    <path
       style="fill:none;stroke:#000000;stroke-width:0.0883694px;stroke-linecap:butt;stroke-linejoin:miter;stroke-opacity:1"
       d="m 102.429,199.87659 c 0,0 2.87213,5.64634 2.26369,7.06186"
       id="path1871" />
    <path
       style="fill:none;stroke:#000000;stroke-width:0.0883694px;stroke-linecap:butt;stroke-linejoin:miter;stroke-opacity:1"
       d="m 100.82845,199.46209 c 0,0 -1.262423,6.20624 -0.45254,7.66421"
       id="path1873" />
    <path
       style="fill:none;stroke:#000000;stroke-width:0.0883694px;stroke-linecap:butt;stroke-linejoin:miter;stroke-opacity:1"
       d="m 98.219093,201.49845 c 0,0 -1.580662,3.57078 -1.017887,4.72978"
       id="path1875" />
    <path
       style="fill:none;stroke:#000000;stroke-width:0.0883694px;stroke-linecap:butt;stroke-linejoin:miter;stroke-opacity:1"
       d="m 98.781455,199.4089 c 0,0 -3.647122,5.78589 -3.086094,6.4692"
       id="path1877" />
    <path
       style="fill:none;stroke:#000000;stroke-width:0.0883694px;stroke-linecap:butt;stroke-linejoin:miter;stroke-opacity:1"
       d="m 112.50073,202.93929 c 0,0 1.50094,4.25043 0.72368,5.41839"
       id="path1879" />
    <path
       style="fill:none;stroke:#000000;stroke-width:0.0883694px;stroke-linecap:butt;stroke-linejoin:miter;stroke-opacity:1"
       d="m 114.89584,204.81937 c 0,0 1.35912,3.90886 0.5098,4.66835"
       id="path1881" />
    <path
       style="fill:none;stroke:#000000;stroke-width:0.0883694px;stroke-linecap:butt;stroke-linejoin:miter;stroke-opacity:1"
       d="m 93.311764,200.34402 c 0,0 -1.487824,3.67291 -0.505641,7.07763"
       id="path1885" />
    <path
       style="fill:none;stroke:#000000;stroke-width:0.0883694px;stroke-linecap:butt;stroke-linejoin:miter;stroke-opacity:1"
       d="m 91.649901,201.38234 c 0,0 -1.170389,4.96844 -0.131326,6.10576"
       id="path1887" />
    <path
       style="fill:none;stroke:#000000;stroke-width:0.0883694px;stroke-linecap:butt;stroke-linejoin:miter;stroke-opacity:1"
       d="m 89.858311,203.3365 c 0,0 -1.160712,3.45879 -0.137626,5.32182"
       id="path1889" />
    <path
       style="fill:none;stroke:#000000;stroke-width:0.0883694px;stroke-linecap:butt;stroke-linejoin:miter;stroke-opacity:1"
       d="m 88.298497,204.12997 c 0,0 -1.048287,2.27154 -1.048392,4.50298"
       id="path1891" />
    <path
       style="fill:none;stroke:#000000;stroke-width:0.0883694px;stroke-linecap:butt;stroke-linejoin:miter;stroke-opacity:1"
       d="m 84.822204,206.01394 c -0.401866,0.5146 -2.781948,4.76241 -2.781948,6.08514"
       id="path1895" />
    <path
       style="fill:none;stroke:#000000;stroke-width:0.0883694px;stroke-linecap:butt;stroke-linejoin:miter;stroke-opacity:1"
       d="m 86.827021,205.45667 c -0.127112,0.272 -3.25485,3.42516 -2.437895,4.50746"
       id="path1897" />
    <path
       style="fill:#000000;stroke:#000000;stroke-width:0.0883694px;stroke-linecap:butt;stroke-linejoin:miter;stroke-opacity:1"
       d="m 60.916502,178.71927 c 0,0 1.552904,12.83973 1.803923,15.31197 0.251012,2.47226 5.066196,10.52551 5.066196,10.52551 0,0 4.043087,7.23259 4.821046,12.61831 0.777959,5.38569 19.653334,23.39665 23.399356,18.24361 l 12.497537,0.0178 c 0,0 3.35864,1.97977 5.17276,-0.22589 1.81409,-2.20566 12.26391,-13.55923 12.97001,-15.95713 0.70613,-2.39789 0.15065,-3.56488 0.15065,-3.56488 0,0 9.59047,-17.3588 9.96446,-19.06507 0.37398,-1.70625 2.09373,-12.13956 2.09373,-12.13956 0,0 -0.65529,22.18225 -4.88291,28.40966 -4.22761,6.22739 -6.67232,14.30742 -6.67232,14.30742 0,0 -6.37437,11.04644 -8.604,12.05869 -2.22963,1.01223 -9.49215,8.25516 -21.607789,5.61263 C 84.973521,242.22976 74.455618,230.38439 72.87235,224.817 71.289085,219.24963 62.334681,211.37598 61.971139,198.59867 61.607596,185.82133 60.916502,178.71928 60.916502,178.71928 Z"
       id="path2404"
       sodipodi:nodetypes="cscsccsscscscsssscc" />
    <path
       style="fill:#000000;stroke:#000000;stroke-width:0.0883694px;stroke-linecap:butt;stroke-linejoin:miter;stroke-opacity:1"
       d="m 97.554101,224.54826 c 0,0 5.124959,0.30286 7.264899,-0.0162 2.13994,-0.31891 1.46756,1.5467 -0.34031,3.03643 -1.80784,1.48973 -0.88361,-0.29266 -2.01717,-0.19691 -1.13352,0.0959 -1.53638,0.87312 -1.53638,0.87312 0,0 0.8156,-1.11153 0.009,-1.28718 -0.80551,-0.17565 -3.085527,0.99061 -3.822117,-0.19081 -0.736613,-1.18143 0.440957,-2.21859 0.440957,-2.21859 z"
       id="path1731"
       sodipodi:nodetypes="cssscsscc" />
  </g>
  <g
     inkscape:groupmode="layer"
     id="layer5"
     inkscape:label="oreilles"
     sodipodi:insensitive="true">
    <path
       style="fill:#c87137;stroke:#000000;stroke-width:0.0883694px;stroke-linecap:butt;stroke-linejoin:miter;stroke-opacity:1"
       d="m 60.787588,162.21306 c 0,0 -2.587829,-1.59762 -3.595571,-0.18183 -1.007734,1.4158 0.08878,4.11659 -0.03812,4.76357 -0.126879,0.64697 -0.440948,4.5011 -0.338236,5.54565 0.102727,1.04452 -0.09972,3.43168 -0.08585,5.17919 0.01385,1.74754 -0.05342,6.32794 0.784572,9.19448 0.838019,2.86658 0.799587,2.87612 0.799587,2.87612 0,0 -0.605405,2.60311 1.710078,3.80908 2.315475,1.20595 2.077179,-1.84079 2.077179,-1.84079 l -0.719294,-11.20832 c 0,0 -0.548902,-6.28784 -0.258058,-8.24914 0.290838,-1.9613 -0.336302,-9.88801 -0.336302,-9.88801 z"
       id="path1352" />
    <path
       style="fill:#000000;stroke:#000000;stroke-width:0.0883694px;stroke-linecap:butt;stroke-linejoin:miter;stroke-opacity:1"
       d="m 56.947491,165.05055 c 0.963691,0.69423 3.880746,6.89892 3.880746,6.89892 0,0 -1.387255,0.76003 -1.384778,1.57464 0,0 -0.342669,-0.61197 0.983079,-1.60549 0,0 0.466579,0.11459 -1.691436,-3.58667 -2.158014,-3.70122 -1.787611,-3.2814 -1.787611,-3.2814 z"
       id="path1467" />
    <path
       style="fill:#000000;stroke:#000000;stroke-width:0.0883694px;stroke-linecap:butt;stroke-linejoin:miter;stroke-opacity:1"
       d="m 59.502403,187.00507 c -0.178804,-0.65342 0.535193,-1.39886 0.535193,-1.39886 -0.575827,0.0562 -2.098291,-2.57538 -2.098291,-2.57538 0,0 -0.810442,-1.24816 -0.259567,-2.97428 0.550873,-1.72614 -0.934366,2.82619 2.147421,4.94532 3.081788,2.11914 0.370353,0.13137 0.08796,1.36764 -0.282382,1.23625 -0.412725,0.63556 -0.412726,0.63556 z"
       id="path1469" />
    <path
       style="fill:#c87137;stroke:#000000;stroke-width:0.0883694px;stroke-linecap:butt;stroke-linejoin:miter;stroke-opacity:1"
       d="m 141.16246,164.62393 c 0,0 1.83626,0.52353 1.74942,1.8401 -0.0868,1.31656 -1.91085,5.62331 -2.18782,6.1632 -0.27697,0.53991 -0.3313,2.05842 -0.3313,2.05842 0,0 0.71663,9.06394 -0.0162,11.01102 0,0 1.45911,0.9634 0.52066,2.497 -0.93847,1.53356 -1.71126,3.4716 -1.78301,3.30211 -0.0718,-0.16948 0.2073,-5.38096 0.2073,-5.38096 0,0 0.70585,-19.50453 1.84083,-21.49089 z"
       id="path1850" />
  </g>
  <g
     inkscape:groupmode="layer"
     id="layer2"
     inkscape:label="gilet"
     style="opacity:1"
     sodipodi:insensitive="true">
    <path
       style="fill:#666666;stroke:#000000;stroke-width:0.0883694px;stroke-linecap:butt;stroke-linejoin:miter;stroke-opacity:1"
       d="m 185.24251,250.69186 c 0,0 4.39654,-1.44688 6.76662,0.78464 2.3701,2.23155 5.50724,4.72892 6.30723,4.71412 0.80001,-0.0148 7.02481,6.08463 7.02481,6.08463 l 4.41167,3.3572 0.14597,5.95361 0.0637,11.84876 -0.1993,10.04954 c 0,0 -4.51569,-3.97618 -4.90152,-5.53807 -0.38585,-1.5619 -1.82303,-3.98075 -2.08337,-5.66598 -0.26035,-1.68528 -2.03612,-6.1939 -2.03612,-6.1939 l -2.14568,-6.45394 -2.01601,-5.49338 -3.24518,-7.57407 c 0,0 -2.8967,-5.53777 -4.3148,-5.28658 -1.41812,0.25117 -0.44784,1.87677 -0.94249,2.2741 -0.49462,0.39732 -0.44412,0.33024 -1.8918,-0.78711 z"
       id="path275" />
    <path
       style="fill:none;stroke:#000000;stroke-width:0.0883694px;stroke-linecap:butt;stroke-linejoin:miter;stroke-opacity:1"
       d="m 209.81059,268.7898 c 0,0 -3.91914,-5.89635 -4.46942,-6.51455"
       id="path654" />
    <path
       style="fill:none;stroke:#000000;stroke-width:0.0883694px;stroke-linecap:butt;stroke-linejoin:miter;stroke-opacity:1"
       d="m 209.87766,277.86015 c 0,0 -6.96004,-13.24221 -8.20631,-14.19132 -1.24626,-0.94912 -2.33414,-3.73555 -2.80485,-4.11938"
       id="path656" />
    <path
       style="fill:#000000;stroke:#000000;stroke-width:0.0883694px;stroke-linecap:butt;stroke-linejoin:miter;stroke-opacity:1"
       d="m 207.4151,291.03795 c 0,0 -1.48882,-12.29349 -4.08621,-14.42966 -2.5974,-2.13617 4.50375,10.05393 4.08621,14.42966 z"
       id="path658" />
    <path
       style="fill:#666666;stroke:#000000;stroke-width:0.0883694px;stroke-linecap:butt;stroke-linejoin:miter;stroke-opacity:1"
       d="m 30.890201,256.77134 c 0,0 -0.08641,0.47086 -2.524846,1.46492 -2.438434,0.99405 -8.487341,2.88838 -8.77076,3.09951 -0.283435,0.21115 -5.345317,2.20274 -6.258821,3.02614 -0.913493,0.82341 -2.170898,1.30228 -2.566256,1.97235 -0.395355,0.67009 -1.4808471,4.03509 -1.5065179,4.72377 -0.025758,0.68868 -1.011948,6.55538 -1.011948,6.55538 0,0 -0.4686064,3.90369 -0.4252363,4.28941 0.043423,0.38573 -0.6851302,6.66152 -0.6851302,6.66152 l -0.3459512,4.86225 c 0,0 0.7187762,2.2957 0.07507,3.12153 -0.6437722,0.82582 -7.1250159,0.31566 -7.1250159,0.31566 l -0.004874,-5.2051 0.002431,-7.29418 0.0401078,-7.81861 -0.0197469,-4.03307 -0.10462216,-10.55876 c 0,0 2.64915756,0.27323 2.78112286,0.27078 0.1319524,-0.002 7.2991621,-2.98244 8.2842229,-3.22022 0.985062,-0.23777 6.478889,-1.82068 7.934704,-2.00436 1.455801,-0.18369 5.397603,-0.98354 7.542547,-0.74716 2.144943,0.23638 4.690238,0.51824 4.690238,0.51824 z"
       id="path693" />
    <path
       style="fill:#666666;stroke:#000000;stroke-width:0.0883694px;stroke-linecap:butt;stroke-linejoin:miter;stroke-opacity:1"
       d="m 25.801088,259.23515 c 0,0 -6.75652,-2.18301 -12.337384,0.79912 -5.5808647,2.98214 -10.7446748,8.75171 -11.4948258,9.98852 -0.7501382,1.23682 -2.25995782,2.48675 -2.25995782,2.48675 0,0 3.39369032,-3.28212 4.23854352,-4.179 0.8448287,-0.89688 3.7730285,-5.96743 11.5852111,-8.71755 0,0 6.525057,-1.58639 10.268413,-0.37784 z"
       id="path695" />
  </g>
  <g
     inkscape:groupmode="layer"
     id="layer12"
     inkscape:label="teeshirt"
     style="opacity:1"
     sodipodi:insensitive="true">
    <path
       style="fill:#447821;stroke:#000000;stroke-width:0.0883694px;stroke-linecap:butt;stroke-linejoin:miter;stroke-opacity:1"
       d="m 128.94642,238.07786 c 0,0 1.83399,0.27001 3.64025,-0.22104 1.80627,-0.49106 5.70157,1.76157 5.70157,1.76157 0,0 2.53167,2.38389 4.5586,3.14377 2.02695,0.75988 0.51335,1.86816 5.09066,0.27569 4.57726,-1.59246 7.45054,-3.47558 8.11926,-3.27415 0.66872,0.20139 9.46107,1.42806 10.77392,0.9274 1.31286,-0.50065 7.24337,0.11775 8.63208,1.64224 1.38872,1.52449 6.44354,6.11015 8.60794,5.6302 2.16442,-0.47996 -0.002,2.84354 2.72793,5.38162 2.73115,2.53808 -0.27982,-5.39289 4.25913,-0.30604 4.53895,5.08685 11.85768,30.52828 13.35991,34.03311 1.50222,3.50481 5.42236,9.79153 5.42236,9.79153 L 6.5205817,296.98132 c 0,0 2.0095737,-28.25239 4.3580893,-30.77662 2.348491,-2.52423 10.246656,-5.50985 11.731392,-5.86676 1.484724,-0.35692 7.015447,-2.41084 7.94092,-3.20001 0.925471,-0.78918 8.503931,-6.6466 9.78072,-6.54801 1.276782,0.0987 7.750847,0.81679 9.186549,-1.53002 1.435709,-2.34681 7.211675,-12.29671 11.574391,-13.45454 4.362713,-1.15782 2.605648,0.36685 3.665914,-0.37864 1.060262,-0.74548 2.036887,-3.85357 2.546043,-3.38492 0.509148,0.46867 -0.486096,4.95541 1.187852,7.56015 1.673952,2.60474 15.696291,23.54951 36.242348,30.56434 20.54605,7.01481 23.97561,-0.37987 23.97561,-0.37987 0,0 6.71669,-4.46298 6.08327,-14.33989 -0.63342,-9.87691 -5.84726,-17.16859 -5.84726,-17.16859 z"
       id="path8639"
       sodipodi:nodetypes="cscsssssscssccssscsssssscscc" />
    <path
       style="fill:#000000;stroke:#000000;stroke-width:0.0883694px;stroke-linecap:butt;stroke-linejoin:miter;stroke-opacity:1"
       d="m 133.44065,240.31412 c 0,0 7.13677,6.50302 9.45272,14.56116 2.31596,8.05814 5.23057,13.58787 -1.28598,20.46664 -6.51653,6.87874 -18.503,15.04593 -22.27363,13.11096 -3.77062,-1.93499 -37.975661,-11.35095 -51.117395,-31.6238 -13.141726,-20.27286 -2.581902,-18.94575 -2.581902,-18.94575 0,0 -5.93525,1.24193 -1.639342,9.64136 4.295906,8.39944 12.289834,18.499 15.003002,20.16514 2.713189,1.66615 23.572087,14.55254 25.412617,14.52825 1.84053,-0.0244 26.03241,12.97114 37.7956,-12.62362 0,0 5.85856,-7.58269 -8.76569,-29.28034 z"
       id="path8707" />
    <path
       style="fill:none;stroke:#000000;stroke-width:0.0883694px;stroke-linecap:butt;stroke-linejoin:miter;stroke-opacity:1"
       d="m 62.5009,239.03872 c 0,0 -8.638231,1.54124 -17.299434,22.49985 -8.661213,20.95859 -14.471181,17.62122 -14.471181,17.62122"
       id="path8999" />
    <path
       style="fill:none;stroke:#000000;stroke-width:0.0883694px;stroke-linecap:butt;stroke-linejoin:miter;stroke-opacity:1"
       d="m 42.943693,257.75803 c 0,0 -9.706154,8.25985 -11.89642,17.79094"
       id="path9001" />
    <path
       style="fill:none;stroke:#000000;stroke-width:0.0883694px;stroke-linecap:butt;stroke-linejoin:miter;stroke-opacity:1"
       d="m 39.986117,254.21619 c 0,0 -13.444493,5.0213 -17.72106,20.42012"
       id="path9003" />
    <path
       style="fill:#000000;stroke:#000000;stroke-width:0.0883694px;stroke-linecap:butt;stroke-linejoin:miter;stroke-opacity:1"
       d="m 141.40116,283.05587 c -0.65684,0.0322 -11.89695,13.71298 -19.0404,10.88811 -7.14349,-2.82488 -19.50557,-7.61959 -19.50557,-7.61959 0,0 18.92691,7.47378 21.39964,7.55825 2.47272,0.0845 17.14633,-10.82677 17.14633,-10.82677 z"
       id="path9005" />
    <path
       style="fill:#000000;stroke:#000000;stroke-width:0.0883694px;stroke-linecap:butt;stroke-linejoin:miter;stroke-opacity:1"
       d="m 148.5389,250.62464 c 0,0 21.7723,23.6395 22.58713,25.50931 0.81486,1.86984 1.74975,4.69863 3.73913,6.28263 1.98936,1.584 8.37131,7.40564 10.85137,11.65934 2.48009,4.25369 -5.30035,-6.1065 -13.80748,-12.79514 -8.50711,-6.68865 -16.02121,-21.29219 -23.37015,-30.65614 z"
       id="path9153" />
    <path
       style="fill:#000000;stroke:#000000;stroke-width:0.0883694px;stroke-linecap:butt;stroke-linejoin:miter;stroke-opacity:1"
       d="m 209.83999,296.86378 c 0,0 -33.97911,-41.335 -35.6045,-42.76931 -1.62536,-1.4343 -7.9911,-8.19634 -9.50075,-8.25491 -1.50967,-0.0585 18.07761,16.00793 24.47326,27.97795 6.39563,11.97005 17.65041,20.77931 20.63199,23.04627 z"
       id="path9188" />
  </g>
  <g
     inkscape:groupmode="layer"
     id="layer10"
     inkscape:label="Ombres"
     style="opacity:0.426057"
     sodipodi:insensitive="true">
    <path
       style="fill:#ff9955;stroke:none;stroke-width:0.0743399px;stroke-linecap:butt;stroke-linejoin:miter;stroke-opacity:1"
       d="m 111.70533,170.57684 c 0,0 -1.65159,-5.46601 -0.74859,-6.80462 0.90298,-1.33858 1.99263,-2.72727 2.34453,-2.92548 0.35189,-0.19822 -2.28185,-3.29943 -1.04621,-5.06703 1.23563,-1.7676 -4.39582,3.95614 -4.43208,7.13494 -0.0363,3.1788 3.88235,7.66219 3.88235,7.66219 z"
       id="path6908" />
    <path
       style="fill:#d38d5f;stroke:none;stroke-width:0.0883694px;stroke-linecap:butt;stroke-linejoin:miter;stroke-opacity:1"
       d="m 135.09116,158.35536 c 0,0 -0.87109,1.77952 -0.42141,3.30001 0.44969,1.52047 0.69008,4.58245 1.0958,4.64818 0.40571,0.0658 1.53622,-0.15464 1.78861,2.61545 0.25241,2.77013 -6.43638,18.6415 -9.90916,29.50348 -3.47277,10.86201 -0.2632,15.54843 -0.2632,15.54843 0,0 8.78424,-15.79092 9.06915,-16.66682 0.28489,-0.87589 2.84025,-8.65108 2.62273,-10.73566 -0.21751,-2.08457 1.63093,-15.26747 1.17726,-16.0685 -0.45367,-0.80102 -0.17813,-18.89143 -0.68516,-18.88473 -0.50701,0.006 -4.47462,6.74016 -4.47462,6.74016 z"
       id="path5729" />
    <path
       style="fill:#ff9955;stroke:none;stroke-width:0.0883694px;stroke-linecap:butt;stroke-linejoin:miter;stroke-opacity:1"
       d="m 96.652408,165.45561 c 0,0 -11.675234,9.39542 -15.09562,8.06893 -3.420387,-1.3265 -0.13354,-1.25467 3.158656,-4.55273 3.292194,-3.29806 -13.477512,-1.20658 -18.747351,-2.24381 -4.504362,-0.88656 16.885222,-6.37553 19.878532,-6.66776 2.993321,-0.29225 -6.33905,-8.69135 -6.33905,-8.69135 0,0 12.543047,-3.48704 13.301757,-0.0268 0.758699,3.46026 3.843076,14.11347 3.843076,14.11347 z"
       id="path8075"
       sodipodi:nodetypes="csssscsc" />
  </g>
  <g
     inkscape:groupmode="layer"
     id="layer9"
     inkscape:label="yeux"
     style="opacity:1"
     sodipodi:insensitive="true">
    <path
       style="fill:#000000;stroke:#000000;stroke-width:0.0883694px;stroke-linecap:butt;stroke-linejoin:miter;stroke-opacity:1"
       d="m 110.21817,153.38663 c 0,0 1.90276,-4.87423 1.15137,-7.93386 -0.75139,-3.05961 1.07517,4.10543 1.07517,4.10543 0,0 2.81765,-4.57108 3.9541,-4.80873 1.13644,-0.23764 -0.44043,2.74853 -0.44043,2.74853 0,0 3.81319,-3.55591 6.53792,-3.25377 2.72477,0.30213 -0.67616,-0.35841 -2.74285,2.21704 -2.06669,2.57545 0.41023,-0.87797 3.04579,-1.49296 2.63557,-0.61501 0.80776,0.0842 -0.32472,1.28491 -1.13251,1.20069 7.27197,-1.56231 11.50991,2.25934 4.23791,3.82164 4.87834,5.05467 4.17614,7.02261 -0.7022,1.96796 -2.50359,5.08111 -2.50359,5.08111 0,0 0.052,-7.27226 -7.06618,-7.91966 -7.11819,-0.64742 -15.86329,0.0992 -18.37263,0.69001 z"
       id="path883" />
    <path
       style="fill:#000000;stroke:#000000;stroke-width:0.0883694px;stroke-linecap:butt;stroke-linejoin:miter;stroke-opacity:1"
       d="m 93.568031,154.80239 c 0,0 -5.088603,-5.32723 -14.670635,-3.50263 -9.582041,1.82461 -13.272326,7.52735 -13.272326,7.52735 0,0 -2.949487,-4.43538 0.03466,-8.99887 2.984158,-4.5635 10.815257,-7.11906 10.815257,-7.11906 0,0 -1.841451,1.77563 -0.966926,1.77563 0.874522,0 4.277681,-2.02954 8.919504,-0.70997 4.641812,1.31958 4.674223,1.24567 4.674223,1.24567 0,0 -0.20465,-1.45314 -1.401795,-2.10108 -1.197148,-0.64794 3.127388,1.91434 3.127388,1.91434 0,0 0.123808,-1.52421 -0.861596,-2.42274 -0.985412,-0.8985 2.767094,2.75387 2.767094,2.75387 0,0 0.962444,-2.6474 0.119214,-3.30534 -0.843194,-0.65796 3.336364,3.48954 3.254771,8.00563 -0.08154,4.51611 -2.538892,4.9372 -2.538892,4.9372 z"
       id="path918" />
    <path
       style="fill:#ffd5d5;stroke:none;stroke-width:0.0883694px;stroke-linecap:butt;stroke-linejoin:miter;stroke-opacity:1"
       d="m 132.30408,165.28334 c 0,0 -7.43957,3.08931 -12.02579,1.34106 -4.58622,-1.74829 -5.84184,-0.96427 -6.1369,-0.97993 -0.29505,-0.0156 -0.93336,-0.68779 0.42886,-1.79193 1.3622,-1.10414 3.80859,-3.51095 6.3251,-3.79739 2.51653,-0.28641 6.85992,-0.10853 7.91568,0.77296 1.0558,0.88138 3.49305,4.45523 3.49305,4.45523 z"
       id="path6383" />
    <path
       style="fill:#280b0b;stroke:#000000;stroke-width:0.0883694px;stroke-linecap:butt;stroke-linejoin:miter;stroke-opacity:1"
       d="m 119.39541,161.06387 c 3.34753,-1.85311 6.72435,-0.62398 6.72435,-0.62398 0,0 1.23588,1.95555 0.64442,3.59436 -0.59151,1.63879 -2.074,3.01493 -3.70022,3.00459 -1.62621,-0.0101 -2.85463,-0.85364 -3.62217,-2.58952 -0.76755,-1.73591 -0.0464,-3.38545 -0.0464,-3.38545 z"
       id="path5023" />
    <ellipse
       style="fill:#ffd5d5;fill-opacity:1;stroke:none;stroke-width:0.0534777"
       id="path4908"
       cx="124.12383"
       cy="163.15228"
       rx="0.53036541"
       ry="0.2579425" />
    <ellipse
       style="fill:#000000;fill-opacity:1;stroke:none;stroke-width:0.0883694"
       id="path5467"
       cx="122.82388"
       cy="162.9868"
       rx="1.1490492"
       ry="1.2182441" />
    <ellipse
       style="fill:#ffd5d5;fill-opacity:1;stroke:none;stroke-width:0.0660155"
       id="path4884"
       cx="122.36916"
       cy="162.60799"
       rx="0.40699548"
       ry="0.41483226" />
    <path
       style="fill:#000000;stroke:#000000;stroke-width:0.0883694px;stroke-linecap:butt;stroke-linejoin:miter;stroke-opacity:1"
       d="m 132.30408,165.28347 c 0,0 2.35563,0.65063 3.42191,-0.46224 1.06629,-1.11284 -1.18301,0.91936 -2.8778,-0.17896 -1.69482,-1.09833 0.4742,0.29009 1.6974,-1.60189 1.22318,-1.89196 -0.32374,0.65609 -1.96994,0.59201 -1.64621,-0.0641 1.26825,-0.18206 1.56769,-0.79365 0.29943,-0.6116 -0.33963,0.98044 -2.25765,0.0284 -1.91803,-0.95206 1.00533,-0.40731 1.42621,-0.4205 0.4209,-0.0132 -2.01724,-0.55181 -2.32536,-0.52743 -0.30812,0.0244 1.97869,-0.0649 2.27181,0.002 0.29313,0.0676 -1.24733,-0.23697 -1.70018,-0.26203 -0.45286,-0.025 0.29303,-0.0514 0.45626,-0.47383 0.16323,-0.42252 -0.36957,0.42488 -1.42581,0.43737 -1.05625,0.0125 -0.89814,-1.01965 -0.54308,-1.23443 0.35504,-0.21478 -0.26831,-0.0967 -0.7124,0.0695 -0.44411,0.16613 0.82847,-0.52437 0.63244,-0.55248 -0.19602,-0.0282 -0.83006,0.34081 -1.22495,0.34763 -0.39489,0.006 0.18083,-0.73942 0.30716,-0.75477 0.12635,-0.0153 -0.9397,0.2769 -1.19028,0.38692 -0.25059,0.11 0.26014,-0.78991 0.39461,-0.79666 0.13447,-0.006 -0.61429,0.27573 -1.06003,0.65808 -0.44571,0.38235 -0.14584,-0.65466 -0.0486,-0.71518 0.0973,-0.0604 -0.87749,0.8034 -1.21468,0.71617 -0.33716,-0.0872 -0.95985,-0.0932 -0.71254,-0.46528 0.24734,-0.37211 -0.27898,0.37194 -0.49437,0.34623 -0.21537,-0.0256 -0.0384,-0.74005 -0.0384,-0.74005 0,0 -0.53425,0.59252 -0.78921,0.53744 -0.25495,-0.0551 -0.28088,-0.0127 -0.5112,-0.798 -0.2303,-0.78527 0.16876,1.09712 -0.43129,0.96996 -0.60005,-0.12716 -0.82728,-0.76959 -0.82728,-0.76959 0,0 0.10292,0.76716 -0.34517,0.80941 -0.44808,0.0423 -1.0712,-0.0595 -1.02598,-0.3534 0.0453,-0.29388 -0.15404,0.61983 -0.0531,0.71715 0.10095,0.0973 -0.80975,0.2713 -1.20722,-0.13633 -0.39748,-0.4076 -0.0425,0.52554 -0.43398,0.60262 -0.39151,0.0771 -0.86196,0.3046 -1.12008,-0.18912 -0.25809,-0.49373 0.28589,0.52186 -0.14471,0.77782 -0.43057,0.25595 -0.54887,0.44289 -1.14708,0.16478 -0.5982,-0.27811 -0.006,0.90255 0.0372,0.93387 0.0433,0.0315 4.17168,-2.39453 7.02806,-2.07797 2.85635,0.31656 3.62472,0.36426 5.54808,2.1666 1.92336,1.80236 3.04362,3.03898 3.04362,3.03898 z"
       id="path5582" />
    <path
       style="fill:#241c1c;stroke:#000000;stroke-width:0.0883694px;stroke-linecap:butt;stroke-linejoin:miter;stroke-opacity:1"
       d="m 133.7058,162.63337 c 0,0 -0.825,-4.78853 -7.85304,-5.05787 -7.02801,-0.26934 -9.32356,0.63877 -11.26604,2.49534 -1.94246,1.85657 0.69902,-3.83965 9.13738,-2.86963 8.43833,0.97003 8.50065,1.86881 9.9817,5.43216 z"
       id="path5798" />
    <path
       style="fill:#000000;stroke:#000000;stroke-width:0.0883694px;stroke-linecap:butt;stroke-linejoin:miter;stroke-opacity:1"
       d="m 116.71396,162.1886 c 0,0 -3.26997,1.39796 -3.0706,2.78409 0.19935,1.3861 1.19807,0.60542 2.33569,0.57023 1.1376,-0.0352 -2.272,0.2774 -1.95305,-0.62429 0.31898,-0.90166 2.68796,-2.73003 2.68796,-2.73003 z"
       id="path6348" />
    <path
       style="fill:#ffd5d5;stroke:none;stroke-width:0.0883694px;stroke-linecap:butt;stroke-linejoin:miter;stroke-opacity:1"
       d="m 71.725318,163.97457 c 0,0 7.439569,3.08934 12.025793,1.34105 4.586212,-1.74826 5.841827,-0.96426 6.136889,-0.97991 0.295073,-0.0156 0.933362,-0.68781 -0.428845,-1.79193 -1.362205,-1.10415 -3.808592,-3.51094 -6.325115,-3.79738 -2.516502,-0.28641 -6.859916,-0.10854 -7.915689,0.77294 -1.055783,0.8814 -3.493033,4.45523 -3.493033,4.45523 z"
       id="path6383-6" />
    <path
       style="fill:#280b0b;stroke:#000000;stroke-width:0.0883694px;stroke-linecap:butt;stroke-linejoin:miter;stroke-opacity:1"
       d="m 84.633999,159.75511 c -3.34753,-1.8531 -6.724366,-0.62398 -6.724366,-0.62398 0,0 -1.235889,1.95554 -0.644409,3.59434 0.591489,1.63881 2.074009,3.01495 3.700212,3.00459 1.626223,-0.0102 2.854636,-0.85363 3.622175,-2.58951 0.767551,-1.7359 0.04637,-3.38544 0.04637,-3.38544 z"
       id="path5023-1" />
    <ellipse
       style="fill:#ffd5d5;fill-opacity:1;stroke:none;stroke-width:0.0534777"
       id="path4908-2"
       cx="-79.905586"
       cy="161.84354"
       rx="0.53036541"
       ry="0.2579425"
       transform="scale(-1,1)" />
    <ellipse
       style="fill:#000000;fill-opacity:1;stroke:none;stroke-width:0.0883694"
       id="path5467-9"
       cx="-81.205513"
       cy="161.67804"
       transform="scale(-1,1)"
       rx="1.1490492"
       ry="1.2182441" />
    <ellipse
       style="fill:#ffd5d5;fill-opacity:1;stroke:none;stroke-width:0.0660155"
       id="path4884-3"
       cx="-81.660225"
       cy="161.29924"
       rx="0.40699548"
       ry="0.41483226"
       transform="scale(-1,1)" />
    <path
       style="fill:#000000;stroke:#000000;stroke-width:0.0883694px;stroke-linecap:butt;stroke-linejoin:miter;stroke-opacity:1"
       d="m 71.725318,163.97469 c 0,0 -2.355625,0.65064 -3.421907,-0.46222 -1.066289,-1.11283 1.183019,0.91936 2.877811,-0.17897 1.694792,-1.09831 -0.474214,0.2901 -1.697397,-1.60188 -1.223185,-1.89195 0.323724,0.6561 1.969939,0.592 1.646202,-0.0642 -1.268248,-0.18206 -1.567692,-0.79364 -0.299435,-0.61159 0.339627,0.98044 2.257641,0.0284 1.918024,-0.9521 -1.005321,-0.40732 -1.426213,-0.42053 -0.420893,-0.0133 2.017247,-0.55182 2.325364,-0.52744 0.308118,0.0244 -1.978684,-0.065 -2.271809,0.002 -0.293125,0.0676 1.247325,-0.23698 1.700183,-0.26201 0.452846,-0.025 -0.29304,-0.0514 -0.456279,-0.47385 -0.163217,-0.42253 0.369582,0.42487 1.425842,0.43738 1.056237,0.0125 0.898123,-1.01965 0.543059,-1.23443 -0.355044,-0.21478 0.268295,-0.0967 0.712396,0.0695 0.444113,0.16611 -0.828464,-0.52438 -0.632434,-0.55249 0.196019,-0.0282 0.830054,0.3408 1.224951,0.34765 0.394898,0.006 -0.180837,-0.73944 -0.307175,-0.75479 -0.126338,-0.0153 0.939715,0.2769 1.190286,0.38691 0.250582,0.11001 -0.260142,-0.78989 -0.394613,-0.79666 -0.13446,-0.006 0.614298,0.27576 1.060029,0.6581 0.445732,0.38235 0.145853,-0.65466 0.04861,-0.71519 -0.09731,-0.0604 0.87752,0.80339 1.21469,0.71617 0.33716,-0.0872 0.959864,-0.0931 0.712535,-0.46527 -0.247331,-0.37214 0.278999,0.37191 0.494384,0.34623 0.215376,-0.0256 0.03833,-0.74004 0.03833,-0.74004 0,0 0.534271,0.59252 0.789203,0.53741 0.254944,-0.0551 0.280863,-0.0127 0.511199,-0.798 0.230315,-0.78525 -0.168754,1.09714 0.43129,0.96998 0.600046,-0.12717 0.827269,-0.7696 0.827269,-0.7696 0,0 -0.102917,0.76717 0.345187,0.80942 0.448082,0.0423 1.071199,-0.0595 1.025967,-0.35339 -0.04521,-0.29389 0.154047,0.61983 0.05315,0.71713 -0.100905,0.0973 0.809756,0.2713 1.207217,-0.13631 0.397472,-0.40762 0.04246,0.52552 0.43399,0.60261 0.39151,0.0771 0.861954,0.30461 1.120064,-0.18912 0.25812,-0.49371 -0.285872,0.52185 0.14471,0.77782 0.430578,0.25596 0.54887,0.44289 1.147074,0.16479 0.598213,-0.27811 0.0053,0.90252 -0.03706,0.93386 -0.0432,0.0315 -4.171695,-2.39452 -7.028058,-2.07797 -2.856363,0.31657 -3.624728,0.36423 -5.548079,2.1666 -1.923359,1.80236 -3.043625,3.03897 -3.043625,3.03897 z"
       id="path5582-1" />
    <path
       style="fill:#241c1c;stroke:#000000;stroke-width:0.0883694px;stroke-linecap:butt;stroke-linejoin:miter;stroke-opacity:1"
       d="m 70.323597,161.32461 c 0,0 0.825003,-4.78852 7.853029,-5.05787 7.028024,-0.26934 9.323572,0.63876 11.266055,2.49534 1.942473,1.85656 -0.699024,-3.83966 -9.137358,-2.86963 -8.438344,0.97003 -8.500667,1.86881 -9.981726,5.43216 z"
       id="path5798-9" />
    <path
       style="fill:#000000;stroke:#000000;stroke-width:0.0883694px;stroke-linecap:butt;stroke-linejoin:miter;stroke-opacity:1"
       d="m 87.315423,160.87983 c 0,0 3.269991,1.39798 3.070627,2.7841 -0.199367,1.38611 -1.19809,0.60543 -2.335699,0.57022 -1.137597,-0.0352 2.272011,0.2774 1.953051,-0.62428 -0.31896,-0.90165 -2.687979,-2.73004 -2.687979,-2.73004 z"
       id="path6348-4" />
  </g>
  <g
     inkscape:groupmode="layer"
     id="layer3"
     inkscape:label="nez"
     sodipodi:insensitive="true">
    <path
       style="fill:#000000;stroke:none;stroke-width:0.0883694px;stroke-linecap:butt;stroke-linejoin:miter;stroke-opacity:1"
       d="m 110.86909,193.1433 c 0,0 -1.9957,-1.0025 -3.57653,-0.60292 -1.58083,0.39958 -2.21302,1.09009 -2.21302,1.09009 0,0 0.20477,0.74058 5.78955,-0.48717 z"
       id="path2031" />
    <path
       style="fill:#000000;stroke:none;stroke-width:0.0883694px;stroke-linecap:butt;stroke-linejoin:miter;stroke-opacity:1"
       d="m 96.52103,193.67623 c 0,0 -1.013176,-1.49261 -2.458808,-1.45122 -1.445617,0.0414 -1.866191,1.4661 -1.866191,1.4661 0,0 1.09605,-1.09274 2.330877,-0.0854 1.234818,1.00725 1.994122,0.0704 1.994122,0.0704 z"
       id="path2066" />
    <path
       style="fill:#000000;stroke:#000000;stroke-width:0.0883694px;stroke-linecap:butt;stroke-linejoin:miter;stroke-opacity:1"
       d="m 90.412403,193.362 c 0,0 -1.88914,-0.69064 -0.258893,-4.28496 1.630247,-3.59431 -3.247809,4.50679 0.258893,4.28496 z"
       id="path2249" />
    <path
       style="fill:#000000;stroke:#000000;stroke-width:0.0883694px;stroke-linecap:butt;stroke-linejoin:miter;stroke-opacity:1"
       d="m 111.10543,186.09567 c 0,0 2.90669,2.37103 2.98442,4.31009 0.0778,1.93908 -1.03227,2.73122 -1.03227,2.73122 0,0 2.01159,-2.67672 -1.95215,-7.04131 z"
       id="path2477" />
    <path
       style="fill:#000000;stroke:#000000;stroke-width:0.0999785px;stroke-linecap:butt;stroke-linejoin:miter;stroke-opacity:1"
       d="m 96.383509,158.96401 c 0,0 1.067663,9.18083 -1.00985,12.85843 0,0 1.344884,-2.19746 0.742021,-9.3904 -0.602871,-7.19294 0.267829,-3.46803 0.267829,-3.46803 z"
       id="path6790" />
    <path
       style="fill:#000000;stroke:#000000;stroke-width:0.0958887px;stroke-linecap:butt;stroke-linejoin:miter;stroke-opacity:1"
       d="m 107.80515,156.1847 c 0,0 -1.41972,8.69311 0.56095,15.90667 0,0 -1.71996,-4.46817 -1.63542,-9.51523 0.0845,-5.04705 1.07447,-6.39144 1.07447,-6.39144 z"
       id="path7565" />
    <path
       style="fill:#000000;stroke:#000000;stroke-width:0.0883694px;stroke-linecap:butt;stroke-linejoin:miter;stroke-opacity:1"
       d="m 104.61409,193.62039 c 0,0 -3.49592,2.4064 -5.239493,1.84429 -1.743584,-0.56212 -2.136216,-1.30418 -2.136216,-1.30418 0,0 0.979379,1.29156 2.971489,0.92796 1.99211,-0.36361 4.40422,-1.46807 4.40422,-1.46807 z"
       id="path5548" />
  </g>
  <g
     inkscape:groupmode="layer"
     id="layer4"
     inkscape:label="cheveux*$"
     sodipodi:insensitive="true">
    <path
       style="fill:#000000;stroke:#000000;stroke-width:0.0883694px;stroke-linecap:butt;stroke-linejoin:miter;stroke-opacity:1"
       d="m 140.29328,172.83006 c 0,0 -0.0257,-3.01014 -0.3775,-5.0851 -0.35179,-2.07497 -0.44722,-18.67628 -0.11592,-19.71392 0.33136,-1.03762 -0.13107,-14.35876 -5.6869,-22.9601 -5.55583,-8.6013 -3.89649,-1.50907 -2.69366,-1.56814 1.20285,-0.0591 -0.26888,1.42527 -2.62902,-0.36497 -2.36012,-1.79021 -9.1136,-8.65094 -9.5657,-9.94834 -0.45211,-1.29741 -22.646363,-4.6292 -23.658355,0.36264 -1.011979,4.99183 -1.983868,7.43676 -9.184057,4.16047 -7.20018,-3.27628 -8.280063,2.69223 -8.280063,2.69223 0,0 1.878552,7.14751 -6.465442,6.05139 -8.343985,-1.0961 2.871028,0.93493 1.837639,-3.39463 -1.03341,-4.32956 -6.763765,4.88978 -6.806096,6.62715 -0.0423,1.73741 -2.670665,7.28216 -2.965849,8.92014 -0.295184,1.63798 -1.581517,16.58072 -1.529678,20.41972 0.05184,3.839 -0.0088,4.18342 -0.0088,4.18342 0,0 -1.263138,8.20595 -1.074579,8.90765 0.188558,0.70172 -0.608589,-3.95157 -0.314758,-7.04632 0.293842,-3.09475 -0.265795,-4.45367 -0.265795,-4.45367 l -0.36444,0.52642 c 0,0 0.457836,-3.1388 0.155657,-4.44245 -0.302172,-1.30368 -0.320591,-6.19644 -0.320591,-6.19644 l 0.0135,-8.59294 c 0,0 0.113738,0.5486 -0.592086,1.31954 -0.705815,0.77092 0.91041,-2.11986 0.661658,-3.93165 -0.248743,-1.8118 0.297646,-3.54512 -0.506471,-7.86273 -0.804123,-4.31761 0.539379,-4.61517 0.574245,-4.7991 0.03487,-0.18392 -1.6387,0.69494 -2.212836,0.89329 -0.574135,0.19833 2.151488,-1.25537 2.411524,-1.78886 0.260044,-0.53349 0.677195,-0.9037 0.0075,-1.29011 -0.669765,-0.38641 0.334707,-0.0862 0.904085,-0.8506 0.569379,-0.7644 1.484762,-5.8867 0.799624,-6.91729 -0.685136,-1.0306 -1.994574,-3.40318 -1.94095,-4.07704 0.05365,-0.67387 0.270518,1.83849 1.662149,2.01059 1.391625,0.17211 7.192093,-3.41542 7.274322,-4.00609 0.08227,-0.59066 -2.770752,0.89849 -5.19946,2.65837 -2.428699,1.75991 3.358338,-5.56849 5.843416,-7.0151 2.485075,-1.44662 -3.010121,0.27855 -3.010121,0.27855 0,0 3.572862,-1.10665 5.107477,-1.82772 1.534613,-0.72108 2.098405,-3.6944 2.52224,-3.99268 0.423826,-0.29827 4.540112,-1.830361 5.439623,-2.597961 0.899513,-0.767603 -1.546609,0.02081 -1.892145,0.324201 -0.345537,0.30333 0.146149,-1.293888 2.975998,-1.603171 2.829851,-0.309282 2.720432,-4.260459 4.225546,-5.181802 1.505116,-0.921344 2.874014,-0.314525 2.874014,-0.314525 0,0 1.417677,-2.361906 2.810039,-2.296502 1.392351,0.06543 2.870403,0.775856 2.870403,0.775856 0,0 -0.177268,-3.146963 3.573765,-3.793726 3.751028,-0.646753 3.007158,0.903068 3.007158,0.903068 0,0 -2.759596,-1.752384 -5.044312,2.283163 -2.2847,4.035535 7.794842,1.609415 5.227862,-0.960533 -2.566978,-2.569934 5.18609,3.807981 6.60284,3.213286 1.4168,-0.594697 3.02548,-1.531784 -0.60683,-4.684247 -3.63233,-3.152463 12.83247,10.238222 13.15372,7.773436 0.32126,-2.464781 0.6711,-5.155168 -5.45049,-5.904875 -6.12158,-0.749696 2.81754,-2.425146 6.92745,0.852592 4.10989,3.277739 -2.73281,-2.659414 3.85299,-4.679869 6.58581,-2.020466 -0.35975,-0.627913 -0.13559,3.350007 0.22416,3.97791 -1.19349,6.543342 0.50878,7.780012 1.70228,1.236669 2.36082,-2.211971 0.59991,-5.688412 -1.76092,-3.476427 4.50061,1.974872 4.90651,4.832737 0.40592,2.857867 -0.64004,-4.926009 -2.51135,-5.490787 -1.87128,-0.564767 3.1518,-0.887232 4.34345,4.835648 1.19168,5.722864 -0.34927,6.379594 -0.34927,6.379594 0,0 4.16125,-5.435942 7.71298,-4.533986 3.55175,0.901964 -5.42568,0.183419 -5.77148,4.577106 -0.34581,4.39369 -0.31779,-1.924874 1.75003,-1.242855 2.06782,0.682025 1.82266,2.332295 1.82266,2.332295 0,0 -1.87721,-1.67643 -2.14373,-0.22432 -0.26648,1.45212 3.43687,2.2674 4.28636,2.31245 0.84947,0.045 1.72839,2.39433 1.50332,3.30951 -0.22508,0.91519 -1.13346,2.66233 -1.13346,2.66233 0,0 3.09843,-0.0456 1.35965,-4.08344 -1.73877,-4.03769 2.45209,1.30401 2.29426,3.27265 -0.15783,1.96867 -0.50831,3.28234 -0.75719,3.5409 -0.2489,0.25854 -1.03346,4.01794 -1.83283,4.90545 -0.79937,0.88748 1.11372,5.43012 1.11372,5.43012 0,0 1.76014,3.38831 1.80854,4.17042 0.0485,0.78209 -1.03959,-1.68082 -1.73522,-1.83768 -0.69566,-0.15687 -0.46539,6.22775 0.42622,7.10335 0.89158,0.8756 0.16491,5.57403 -0.65921,7.34447 -0.82412,1.77043 0.99797,5.46684 -0.0663,12.85977 -1.06421,7.39295 -1.53919,15.23556 -1.89428,20.10869 z"
       id="path1170" />
  </g>
</svg>
